# Tiled2Unity generated file. Do not modify by hand.
# Wavefront file for 'EnglishRush_mesh_0012.obj'

# Vertices (Count = 44)
v -74 -44 0
v -75 -44 0
v -75 -43 0
v -74 -43 0
v -33 -45 0
v -34 -45 0
v -34 -44 0
v -33 -44 0
v -74 -45 0
v -75 -45 0
v -75 -44 0
v -74 -44 0
v -33 -46 0
v -34 -46 0
v -34 -45 0
v -33 -45 0
v -74 -46 0
v -75 -46 0
v -75 -45 0
v -74 -45 0
v -19 -47 0
v -20 -47 0
v -20 -46 0
v -19 -46 0
v -33 -47 0
v -34 -47 0
v -34 -46 0
v -33 -46 0
v -74 -47 0
v -75 -47 0
v -75 -46 0
v -74 -46 0
v -19 -48 0
v -20 -48 0
v -20 -47 0
v -19 -47 0
v -74 -48 0
v -75 -48 0
v -75 -47 0
v -74 -47 0
v -74 -49 0
v -75 -49 0
v -75 -48 0
v -74 -48 0

# Texture cooridinates (Count = 4)
vt 0.0001220703 0.0001220703
vt 0.9998779 0.0001220703
vt 0.9998779 0.9998779
vt 0.0001220703 0.9998779

# Normal
vn 0 0 -1

# Mesh description
g EnglishRush_mesh_0012

# Faces
f 1/1/1 2/2/1 3/3/1 4/4/1
f 5/1/1 6/2/1 7/3/1 8/4/1
f 9/1/1 10/2/1 11/3/1 12/4/1
f 13/1/1 14/2/1 15/3/1 16/4/1
f 17/1/1 18/2/1 19/3/1 20/4/1
f 21/1/1 22/2/1 23/3/1 24/4/1
f 25/1/1 26/2/1 27/3/1 28/4/1
f 29/1/1 30/2/1 31/3/1 32/4/1
f 33/1/1 34/2/1 35/3/1 36/4/1
f 37/1/1 38/2/1 39/3/1 40/4/1
f 41/1/1 42/2/1 43/3/1 44/4/1

