# Tiled2Unity generated file. Do not modify by hand.
# Wavefront file for 'EnglishRush_mesh_0002.obj'

# Vertices (Count = 20)
v -21 -37 0
v -22 -37 0
v -22 -36.27344 0
v -21 -36.27344 0
v -16 -40 0
v -17 -40 0
v -17 -39.27344 0
v -16 -39.27344 0
v -17 -40 0
v -18 -40 0
v -18 -39.27344 0
v -17 -39.27344 0
v -22 -43 0
v -23 -43 0
v -23 -42.27344 0
v -22 -42.27344 0
v -23 -43 0
v -24 -43 0
v -24 -42.27344 0
v -23 -42.27344 0

# Texture cooridinates (Count = 4)
vt 0.0001220703 0.0001220703
vt 0.9998779 0.0001220703
vt 0.9998779 0.9998779
vt 0.0001220703 0.9998779

# Normal
vn 0 0 -1

# Mesh description
g EnglishRush_mesh_0002

# Faces
f 1/1/1 2/2/1 3/3/1 4/4/1
f 5/1/1 6/2/1 7/3/1 8/4/1
f 9/1/1 10/2/1 11/3/1 12/4/1
f 13/1/1 14/2/1 15/3/1 16/4/1
f 17/1/1 18/2/1 19/3/1 20/4/1

