# Tiled2Unity generated file. Do not modify by hand.
# Wavefront file for 'EnglishRush_mesh_0004.obj'

# Vertices (Count = 28)
v -33 -43 0
v -34 -43 0
v -34 -42 0
v -33 -42 0
v -66 -43 0
v -67 -43 0
v -67 -42 0
v -66 -42 0
v -32 -44 0
v -33 -44 0
v -33 -43 0
v -32 -43 0
v -5 -45 0
v -6 -45 0
v -6 -44 0
v -5 -44 0
v -31 -45 0
v -32 -45 0
v -32 -44 0
v -31 -44 0
v 0 -46 0
v -1 -46 0
v -1 -45 0
v 0 -45 0
v -26 -46 0
v -27 -46 0
v -27 -45 0
v -26 -45 0

# Texture cooridinates (Count = 4)
vt 0.0001220703 0.0001220703
vt 0.9998779 0.0001220703
vt 0.9998779 0.9998779
vt 0.0001220703 0.9998779

# Normal
vn 0 0 -1

# Mesh description
g EnglishRush_mesh_0004

# Faces
f 1/1/1 2/2/1 3/3/1 4/4/1
f 5/1/1 6/2/1 7/3/1 8/4/1
f 9/1/1 10/2/1 11/3/1 12/4/1
f 13/1/1 14/2/1 15/3/1 16/4/1
f 17/1/1 18/2/1 19/3/1 20/4/1
f 21/1/1 22/2/1 23/3/1 24/4/1
f 25/1/1 26/2/1 27/3/1 28/4/1

