# Tiled2Unity generated file. Do not modify by hand.
# Wavefront file for 'EnglishRush_mesh_0003.obj'

# Vertices (Count = 12)
v -22 -37 0
v -23 -37 0
v -23 -36.27344 0
v -22 -36.27344 0
v -18 -40 0
v -19 -40 0
v -19 -39.27344 0
v -18 -39.27344 0
v -24 -43 0
v -25 -43 0
v -25 -42.27344 0
v -24 -42.27344 0

# Texture cooridinates (Count = 4)
vt 0.0001220703 0.0001220703
vt 0.9998779 0.0001220703
vt 0.9998779 0.9998779
vt 0.0001220703 0.9998779

# Normal
vn 0 0 -1

# Mesh description
g EnglishRush_mesh_0003

# Faces
f 1/1/1 2/2/1 3/3/1 4/4/1
f 5/1/1 6/2/1 7/3/1 8/4/1
f 9/1/1 10/2/1 11/3/1 12/4/1

